<svg xmlns="http://www.w3.org/2000/svg" viewBox="0 0 24 24">
  <path d="m19.14 12.94.04-.94-.04-.94 2.03-1.58a.5.5 0 0 0 .12-.64l-1.92-3.32a.5.5 0 0 0-.6-.22l-2.39.96a7.05 7.05 0 0 0-1.63-.94L14.5 2.8a.5.5 0 0 0-.49-.4h-4.02a.5.5 0 0 0-.49.4l-.36 2.52c-.58.23-1.12.54-1.63.94l-2.39-.96a.5.5 0 0 0-.6.22L2.1 8.84a.5.5 0 0 0 .12.64l2.03 1.58-.04.94.04.94-2.03 1.58a.5.5 0 0 0-.12.64l1.92 3.32a.5.5 0 0 0 .6.22l2.39-.96c.5.4 1.05.71 1.63.94l.36 2.52a.5.5 0 0 0 .49.4h4.02a.5.5 0 0 0 .49-.4l.36-2.52c.58-.23 1.13-.54 1.63-.94l2.39.96a.5.5 0 0 0 .6-.22l1.92-3.32a.5.5 0 0 0-.12-.64zM12 15.5A3.5 3.5 0 1 1 15.5 12 3.5 3.5 0 0 1 12 15.5z" fill="currentColor"/>
</svg>
