<?xml version="1.0" encoding="UTF-8"?>
<svg width="12px" height="11px" viewBox="0 0 12 11" version="1.1" xmlns="http://www.w3.org/2000/svg" xmlns:xlink="http://www.w3.org/1999/xlink">
    <title>日期</title>
    <g id="页面-1" stroke="none" stroke-width="1" fill="none" fill-rule="evenodd">
        <g id="14.1操作日志" transform="translate(-480.000000, -71.000000)" fill="#70859B" fill-rule="nonzero">
            <g id="日期" transform="translate(480.000000, 71.000000)">
                <path d="M1.52478249,0.875247995 L1.52478249,2.05818899 C1.52478249,2.43656841 1.8157271,2.74646639 2.17290927,2.74646639 L2.17290927,2.74646639 L2.95698686,2.74646639 C3.3138228,2.74646639 3.60443448,2.43654014 3.60443448,2.05818899 L3.60443448,2.05818899 L3.60443448,0.875247995 L8.32703746,0.875247995 L8.32703746,2.05818899 C8.32703746,2.43656841 8.61904741,2.74646639 8.97552379,2.74646639 L8.97552379,2.74646639 L9.75994762,2.74646639 C10.1168102,2.74646639 10.4073819,2.43654014 10.4073819,2.05818899 L10.4073819,2.05818899 L10.4073819,0.875247995 L10.6827326,0.875247995 C11.3717818,0.875247995 11.9318182,1.46855597 11.9318182,2.1987703 L11.9318182,2.1987703 L11.9318182,9.6593326 C11.9318182,10.391766 11.3717951,10.9850599 10.6827326,10.9850599 L10.6827326,10.9850599 L1.24667525,10.9850599 C0.559343928,10.9850599 0,10.391766 0,9.6593326 L0,9.6593326 L0,2.19878444 C0,1.46855597 0.559343928,0.875247995 1.24667525,0.875247995 L1.24667525,0.875247995 L1.52478249,0.875247995 Z M11.1418812,4.65593262 L0.790309837,4.65593262 L0.790309837,9.65934673 C0.790309837,9.92874949 0.995254794,10.146618 1.24667525,10.146618 L1.24667525,10.146618 L10.6827193,10.146618 C10.9362038,10.146618 11.1418812,9.92874949 11.1418812,9.65934673 L11.1418812,9.65934673 L11.1418812,4.65593262 Z M2.95697354,0 C3.07489347,0 3.17163974,0.102319336 3.17163974,0.227479955 L3.17163974,0.227479955 L3.17163974,2.05817486 C3.17163974,2.18332134 3.07489347,2.28564068 2.95697354,2.28564068 L2.95697354,2.28564068 L2.17290927,2.28564068 C2.05361772,2.28564068 1.95860263,2.18332134 1.95860263,2.05818899 L1.95860263,2.05818899 L1.95860263,0.227479955 C1.95860263,0.102305201 2.05361772,0 2.17290927,0 L2.17290927,0 Z M9.75994762,0 C9.87818714,0 9.97424094,0.102319336 9.97424094,0.227479955 L9.97424094,0.227479955 L9.97424094,2.05817486 C9.97424094,2.18332134 9.87820046,2.28564068 9.75994762,2.28564068 L9.75994762,2.28564068 L8.97552379,2.28564068 C8.85727095,2.28564068 8.75983221,2.18332134 8.75983221,2.05818899 L8.75983221,2.05818899 L8.75983221,0.227479955 C8.75983221,0.102305201 8.85727095,0 8.97552379,0 L8.97552379,0 Z" id="形状结合"></path>
            </g>
        </g>
    </g>
</svg>